<svg xmlns="http://www.w3.org/2000/svg" width="51" height="67" viewBox="0 0 51 67">
  <defs>
    <filter id="twitter-logo-a" width="114.6%" height="153%" x="-7.3%" y="-26.5%" filterUnits="objectBoundingBox">
      <feOffset dy="-35" in="SourceAlpha" result="shadowOffsetOuter1"/>
      <feGaussianBlur in="shadowOffsetOuter1" result="shadowBlurOuter1" stdDeviation="10"/>
      <feColorMatrix in="shadowBlurOuter1" result="shadowMatrixOuter1" values="0 0 0 0 0   0 0 0 0 0   0 0 0 0 0  0 0 0 0.03 0"/>
      <feMerge>
        <feMergeNode in="shadowMatrixOuter1"/>
        <feMergeNode in="SourceGraphic"/>
      </feMerge>
    </filter>
  </defs>
  <g fill="#222" filter="url(#twitter-logo-a)" opacity=".7" transform="translate(-1258 -319)">
    <path d="M23.9605689,16.8779045 C24.9715171,16.7899523 25.657256,16.3053104 25.9211563,15.6477209 C25.5564835,15.8839518 24.4244659,16.1414978 23.7992825,15.8962201 C23.768649,15.7413218 23.7344164,15.5941906 23.7008116,15.4613576 C23.2244436,13.6167883 21.5934176,12.1307358 19.8844268,12.3102589 C20.0226962,12.2513887 20.1629324,12.1965786 20.3027502,12.147373 C20.4908618,12.0763228 21.5945475,11.8869585 21.4207483,11.4761471 C21.2742765,11.1148061 19.9258155,11.7492271 19.6719172,11.8321484 C20.0070864,11.6992271 20.5613775,11.4705867 20.6207613,11.0644531 C20.1072731,11.1387249 19.603201,11.3947263 19.2137116,11.7669675 C19.3543245,11.6073473 19.4609978,11.4128198 19.4836382,11.2034644 C18.1140852,12.1261021 17.3140564,13.9862053 16.6666093,15.7905716 C16.1582267,15.2710224 15.7076377,14.861888 15.3034174,14.6347039 C14.169433,13.9934427 12.8135647,13.3243792 10.6851624,12.4911942 C10.619836,13.2337792 11.0334304,14.2211564 12.2252085,14.877775 C11.9669997,14.8413232 11.4948165,14.9226558 11.1171704,15.0180219 C11.2709658,15.8687268 11.7732384,16.5696084 13.1329987,16.9085311 C12.5115817,16.951779 12.1904319,17.1008962 11.8993716,17.4222991 C12.1823969,18.0139575 12.8730322,18.7102937 14.1154058,18.5673548 C12.7341351,19.1951562 13.5522009,20.3577758 14.6761416,20.1843868 C12.7587842,22.2727774 9.73585792,22.1192913 8,20.3725596 C12.5322133,26.8849949 22.3841978,24.2240102 23.852389,17.9512921 C24.952392,17.9611774 25.599044,17.5494834 26,17.0956005 C25.3662376,17.2090161 24.4476503,17.0918053 23.9605689,16.8779045 Z" transform="translate(1266 361)"/>
  </g>
</svg>
